<svg width="30" height="30" viewBox="0 0 30 30" fill="none" xmlns="http://www.w3.org/2000/svg">
<path id="Vector" fill-rule="evenodd" clip-rule="evenodd" d="M5.56348 11.7177C5.56348 9.22522 7.58408 7.20462 10.0766 7.20462C12.5691 7.20462 14.5897 9.22522 14.5897 11.7177C14.5897 14.2103 12.5691 16.2308 10.0766 16.2308C7.58408 16.2308 5.56348 14.2103 5.56348 11.7177ZM10.0766 9.66633C8.94365 9.66633 8.02518 10.5848 8.02518 11.7177C8.02518 12.8507 8.94365 13.7692 10.0766 13.7692C11.2096 13.7692 12.128 12.8507 12.128 11.7177C12.128 10.5848 11.2096 9.66633 10.0766 9.66633ZM15.0822 1.83105e-07H14.9179C12.147 -1.14836e-05 9.95603 -2.14328e-05 8.21348 0.188767C6.42827 0.382184 4.95257 0.7868 3.68537 1.70747C2.92638 2.25892 2.25892 2.92638 1.70747 3.68537C0.7868 4.95257 0.382184 6.42827 0.188767 8.21348C-2.14328e-05 9.95603 -1.14836e-05 12.147 1.83105e-07 14.9179V15.0822C-1.14836e-05 17.853 -2.14328e-05 20.044 0.188767 21.7865C0.382184 23.5717 0.7868 25.0475 1.70747 26.3147C2.25892 27.0737 2.92638 27.7412 3.68537 28.2925C4.95257 29.2132 6.42827 29.6178 8.21348 29.8112C9.95603 30 12.147 30 14.9178 30H15.0822C17.853 30 20.044 30 21.7865 29.8112C23.5717 29.6178 25.0475 29.2132 26.3147 28.2925C27.0737 27.7412 27.7412 27.0737 28.2925 26.3147C29.2132 25.0475 29.6178 23.5717 29.8112 21.7865C30 20.044 30 17.853 30 15.0822V14.9178C30 12.147 30 9.95603 29.8112 8.21348C29.6178 6.42827 29.2132 4.95257 28.2925 3.68537C27.7412 2.92638 27.0737 2.25892 26.3147 1.70747C25.0475 0.7868 23.5717 0.382184 21.7865 0.188767C20.044 -2.14328e-05 17.853 -1.14836e-05 15.0822 1.83105e-07ZM5.1561 3.73173C5.92567 3.17262 6.91068 2.8467 8.48302 2.67635C10.0766 2.50368 12.1345 2.50213 15 2.50213C17.8655 2.50213 19.9235 2.50368 21.517 2.67635C23.0893 2.8467 24.0743 3.17262 24.844 3.73173C25.3905 4.12885 25.8712 4.60952 26.2683 5.1561C26.8275 5.92567 27.1533 6.91068 27.3237 8.48302C27.4963 10.0766 27.498 12.1345 27.498 15C27.498 15.4932 27.4978 15.9623 27.497 16.4093C27.0317 16.1155 26.6535 15.897 26.2735 15.7417C24.2347 14.9086 21.906 15.2287 20.1675 16.5807C19.7108 16.9358 19.2915 17.4113 18.6788 18.106L17.236 19.7413C16.3223 20.7767 14.7749 20.9567 13.6481 20.1585C11.4811 18.6235 8.50332 18.9823 6.76303 20.9882L3.59328 24.6415C3.11797 23.9015 2.83212 22.9548 2.67635 21.517C2.50368 19.9235 2.50213 17.8655 2.50213 15C2.50213 12.1345 2.50368 10.0766 2.67635 8.48302C2.8467 6.91068 3.17262 5.92567 3.73173 5.1561C4.12885 4.60952 4.60952 4.12885 5.1561 3.73173ZM5.33435 26.391C6.07785 26.8758 7.02947 27.1662 8.48302 27.3237C10.0766 27.4963 12.1345 27.498 15 27.498C17.8655 27.498 19.9235 27.4963 21.517 27.3237C23.0893 27.1533 24.0743 26.8275 24.844 26.2683C25.3905 25.8712 25.8712 25.3905 26.2683 24.844C26.8275 24.0743 27.1533 23.0893 27.3237 21.517C27.394 20.8682 27.435 20.1415 27.46 19.3155L26.8882 18.945C25.9617 18.345 25.6362 18.1405 25.3423 18.0205C24.119 17.5207 22.722 17.7127 21.6788 18.5238C21.4282 18.7188 21.17 19.0035 20.4397 19.8312L19.0818 21.37C17.3358 23.3488 14.3787 23.6927 12.2251 22.1673C11.0913 21.3642 9.53307 21.5518 8.62242 22.6015L5.33435 26.391Z" fill="white"/>
</svg>
