<svg width="28" height="30" viewBox="0 0 28 30" fill="none" xmlns="http://www.w3.org/2000/svg">
<path id="Vector" fill-rule="evenodd" clip-rule="evenodd" d="M27.3611 15.7131C28.1468 16.3024 28.2176 17.3175 27.5191 17.9805L15.4229 29.4609C15.0614 29.8039 14.5437 30 14 30C13.4562 30 12.9384 29.8039 12.5772 29.4609L0.480861 17.9805C-0.217611 17.3175 -0.146848 16.3024 0.638959 15.7131C1.42477 15.1239 2.62803 15.1834 3.32652 15.8464L12.0963 24.1699V1.60601C12.0963 0.719036 12.9486 0 14 0C15.0513 0 15.9037 0.719036 15.9037 1.60603V24.1699L24.6736 15.8464C25.372 15.1834 26.5753 15.1239 27.3611 15.7131Z" fill="white"/>
</svg>
