<svg width="30" height="30" viewBox="0 0 30 30" fill="none" xmlns="http://www.w3.org/2000/svg">
<path id="Vector" fill-rule="evenodd" clip-rule="evenodd" d="M16.361 2.62508C15.4622 2.44923 14.5378 2.44923 13.6389 2.62508C12.4212 2.86332 11.2607 3.55992 8.40501 5.32988C5.83381 6.92353 4.80669 7.57898 4.09116 8.45442C3.56252 9.10118 3.15291 9.83637 2.88131 10.6259C2.51371 11.6945 2.49768 12.9112 2.49768 15.9323V23.5242C2.49768 25.7237 4.28392 27.5068 6.48739 27.5068C7.96756 27.5068 9.16746 26.309 9.16746 24.8315V21.1275C9.16746 17.912 11.7788 15.3053 15 15.3053C18.2212 15.3053 20.8325 17.912 20.8325 21.1275V24.8315C20.8325 26.309 22.0325 27.5068 23.5127 27.5068C25.716 27.5068 27.5023 25.7237 27.5023 23.5242V15.9323C27.5023 12.9112 27.4863 11.6945 27.1187 10.6259C26.8472 9.83637 26.4375 9.10118 25.9088 8.45442C25.1933 7.57898 24.1662 6.92353 21.595 5.32988C18.7393 3.55992 17.5788 2.86332 16.361 2.62508ZM13.1586 0.178434C14.3746 -0.0594779 15.6253 -0.0594779 16.8415 0.178434C18.5638 0.515417 20.1327 1.48818 22.683 3.06945C22.7585 3.11635 22.8352 3.1638 22.9125 3.21177C22.9817 3.25465 23.0502 3.29703 23.1177 3.33895C25.4172 4.76365 26.8323 5.64048 27.844 6.87827C28.5593 7.75332 29.1135 8.74798 29.4808 9.81612C30.0007 11.327 30.0003 12.9897 30 15.6913C30 15.7707 30 15.8512 30 15.9323V23.5242C30 27.1007 27.0955 30 23.5127 30C20.653 30 18.3348 27.686 18.3348 24.8315V21.1275C18.3348 19.289 16.8418 17.7985 15 17.7985C13.1582 17.7985 11.6651 19.289 11.6651 21.1275V24.8315C11.6651 27.686 9.34696 30 6.48739 30C2.90452 30 4.25656e-05 27.1007 4.25656e-05 23.5242V15.9323C4.25656e-05 15.8512 2.58764e-05 15.7707 2.58764e-05 15.6912C-0.000422457 12.9897 -0.000692506 11.327 0.519076 9.81612C0.886526 8.74798 1.44071 7.75332 2.15593 6.87827C3.16764 5.64048 4.58283 4.76365 6.88227 3.33895C6.94991 3.29703 7.01832 3.25465 7.08751 3.21177C7.16491 3.1638 7.24142 3.11635 7.31706 3.06945C9.86726 1.48818 11.4361 0.515417 13.1586 0.178434Z" fill="white"/>
</svg>
