<svg width="30" height="30" viewBox="0 0 30 30" fill="none" xmlns="http://www.w3.org/2000/svg">
<path id="Vector" fill-rule="evenodd" clip-rule="evenodd" d="M15.7131 0.684598C16.3024 -0.157337 17.3175 -0.233155 17.9805 0.515208L29.4609 13.4755C29.8039 13.8626 30 14.4174 30 15C30 15.5825 29.8039 16.1373 29.4609 16.5245L17.9805 29.4848C17.3175 30.2332 16.3024 30.1573 15.7131 29.3154C15.1239 28.4735 15.1834 27.1843 15.8464 26.436L24.1699 17.0397H1.60603C0.719036 17.0397 0 16.1263 0 15C0 13.8735 0.719036 12.9603 1.60603 12.9603H24.1699L15.8464 3.56413C15.1834 2.81574 15.1239 1.52653 15.7131 0.684598Z" fill="white"/>
</svg>
