<svg width="30" height="30" viewBox="0 0 30 30" fill="none" xmlns="http://www.w3.org/2000/svg">
<path id="Vector" fill-rule="evenodd" clip-rule="evenodd" d="M6.1709 6.4557C6.1709 2.75217 10.3045 0 14.9999 0C19.6954 0 23.8288 2.75217 23.8288 6.4557C23.8288 10.1592 19.6954 12.9114 14.9999 12.9114C10.3045 12.9114 6.1709 10.1592 6.1709 6.4557ZM14.9999 2.27849C11.4829 2.27849 8.95901 4.28682 8.95901 6.4557C8.95901 8.62457 11.4829 10.6329 14.9999 10.6329C18.5169 10.6329 21.0409 8.62457 21.0409 6.4557C21.0409 4.28682 18.5169 2.27849 14.9999 2.27849ZM5.49871 16.8127C11.3313 13.8625 18.6686 13.8625 24.5012 16.8127C27.9178 18.5409 30 21.6153 30 24.927V25.6979C30 26.0009 30.0002 26.2423 29.9713 26.4595C29.7262 28.3092 27.9609 29.7729 25.7205 29.9763C25.4574 30.0001 25.1653 30 24.7993 30H5.20061C4.83474 30 4.54256 30.0001 4.27953 29.9763C2.03902 29.7729 0.27367 28.3092 0.0286073 26.4595C-0.000173933 26.2423 -9.88716e-05 26.0008 1.36284e-05 25.6977V24.927C1.36284e-05 21.6153 2.08226 18.5409 5.49871 16.8127ZM23.0338 18.7911C18.1018 16.2963 11.8982 16.2963 6.96616 18.7911C4.38504 20.0967 2.80936 22.421 2.80936 24.927V25.6354C2.80936 26.0299 2.81148 26.1332 2.82129 26.2073C2.92359 26.9795 3.65941 27.5861 4.58651 27.6702C4.67531 27.6783 4.79941 27.68 5.27619 27.68H24.7237C25.2006 27.68 25.3247 27.6783 25.4136 27.6702C26.3406 27.5861 27.0763 26.9795 27.1787 26.2073C27.1884 26.1332 27.1907 26.0299 27.1907 25.6354V24.927C27.1907 22.421 25.6149 20.0967 23.0338 18.7911Z" fill="white"/>
</svg>
