<svg width="30" height="30" viewBox="0 0 30 30" fill="none" xmlns="http://www.w3.org/2000/svg">
<path id="Vector" fill-rule="evenodd" clip-rule="evenodd" d="M17.8571 3.17596e-07H12.1429C9.60273 -1.84324e-05 7.58017 -3.72157e-05 5.99482 0.261357C4.35904 0.531094 3.0186 1.10201 1.95895 2.40161C0.899047 3.70153 0.433193 5.34641 0.213159 7.35366C-3.70815e-05 9.29843 -2.05845e-05 11.7794 4.15502e-07 14.8943V15.1058C-2.05845e-05 18.2207 -3.70815e-05 20.7015 0.213159 22.6464C0.433193 24.6536 0.899047 26.2986 1.95895 27.5983C3.0186 28.8981 4.35904 29.469 5.99482 29.7386C7.58011 30 9.60275 30 12.1428 30H17.8572C20.3973 30 22.4198 30 24.0051 29.7386C25.6409 29.469 26.9814 28.8981 28.041 27.5983C29.1009 26.2986 29.5668 24.6536 29.7869 22.6464C30 20.7017 30 18.2207 30 15.1058V14.894C30 11.7792 30 9.29835 29.7869 7.35366C29.5668 5.34641 29.1009 3.70153 28.041 2.40161C26.9814 1.10201 25.6409 0.531094 24.0051 0.261357C22.4198 -3.72157e-05 20.3972 -1.84324e-05 17.8571 3.17596e-07ZM6.29909 3.04573C7.71464 2.81233 9.58356 2.80935 12.2287 2.80935H17.7713C20.4164 2.80935 22.2854 2.81233 23.7009 3.04573C25.0836 3.27375 25.8614 3.69827 26.4251 4.38971C26.9886 5.08084 27.3344 6.03373 27.5202 7.72858C27.7106 9.46414 27.713 11.7557 27.713 15C27.713 18.2443 27.7106 20.5359 27.5202 22.2714C27.3344 23.9663 26.9886 24.9191 26.4251 25.6103C25.8614 26.3018 25.0836 26.7263 23.7009 26.9543C22.2854 27.1877 20.4164 27.1907 17.7713 27.1907H12.2287C9.58356 27.1907 7.71464 27.1877 6.29909 26.9543C4.91629 26.7263 4.13861 26.3018 3.57483 25.6103C3.01131 24.9191 2.6655 23.9663 2.4797 22.2714C2.28945 20.5359 2.28701 18.2443 2.28701 15C2.28701 11.7557 2.28945 9.46414 2.4797 7.72858C2.6655 6.03373 3.01131 5.08084 3.57483 4.38971C4.13861 3.69827 4.91629 3.27375 6.29909 3.04573ZM8.12821 7.41894C8.12821 8.36571 7.50349 9.13322 6.73286 9.13322C5.96223 9.13322 5.33751 8.36571 5.33751 7.41894C5.33751 6.47216 5.96223 5.70465 6.73286 5.70465C7.50349 5.70465 8.12821 6.47216 8.12821 7.41894ZM10.9189 9.13322C11.6895 9.13322 12.3143 8.36571 12.3143 7.41894C12.3143 6.47216 11.6895 5.70465 10.9189 5.70465C10.1483 5.70465 9.52356 6.47216 9.52356 7.41894C9.52356 8.36571 10.1483 9.13322 10.9189 9.13322Z" fill="white"/>
</svg>
